# xmcd CD database file
#
# Track frame offsets:
#	150
#	9525
#	20915
#	35590
#	46090
#	54272
#	66647
#	77500
#	86924
#	99953
#	111019
#	123463
#	133561
#	142514
#	161280
#	172523
#	188648
#	200453
#	214069
#
# Disc length: 2987 seconds
#
# Revision: 1
# Processed by: cddbd v1.5.2PL0 Copyright (c) Steve Scherf et al.
# Submitted via: CDex 1.51
#
DISCID=f00ba913
DTITLE=Various Artist - Песни нашего века II
DYEAR=1999
DGENRE=Country
TTITLE0=Надежды маленький оркестрик
TTITLE1=Вершина
TTITLE2=Альма-Матер
TTITLE3=Охотный ряд
TTITLE4=Не гляди назад
TTITLE5=Вспомните, ребята
TTITLE6=Губы окаянные...
TTITLE7=Вечер бродит
TTITLE8=Дожди
TTITLE9=Отважный капитан
TTITLE10=Грузинская песня
TTITLE11=Хромой король
TTITLE12=Я бы сказал бы тебе много хорошего
TTITLE13=Брич-Мулла
TTITLE14=Городок
TTITLE15=Зеленая карета
TTITLE16=Песенка о собачке Тяпе
TTITLE17=Мокрый вальс
TTITLE18=Рыба-Кит
EXTD=YEAR: 1999
EXTT0=
EXTT1=
EXTT2=
EXTT3=
EXTT4=
EXTT5=
EXTT6=
EXTT7=
EXTT8=
EXTT9=
EXTT10=
EXTT11=
EXTT12=
EXTT13=
EXTT14=
EXTT15=
EXTT16=
EXTT17=
EXTT18=
PLAYORDER=
